<svg id="Layer_1" data-name="Layer 1" xmlns="http://www.w3.org/2000/svg" viewBox="0 0 419.37 419.37"><defs><style>.cls-1{fill:none;stroke-width:0.88px;}.cls-1,.cls-3,.cls-4{stroke:#000;}.cls-1,.cls-2,.cls-3,.cls-4{stroke-miterlimit:10;}.cls-2{fill:#fff;stroke:#fff;}.cls-4{fill:#d00011;}</style></defs><title>samdark</title><path class="cls-1" d="M907.57,380" transform="translate(-631.5 -330.43)"/><circle class="cls-2" cx="209.69" cy="209.69" r="209.19"/><polygon class="cls-3" points="185.66 340.82 255.54 340.82 322.02 181.38 258.33 197.3 227.38 260.1 211.46 260.1 179.61 196.42 115.93 181.38 185.66 340.82"/><path class="cls-4" d="M811,526.83c1.5,4.53,1.59,8.6-.13,11.51-4.45,7.56-20.62,6.74-30.75,3.54-15.11-4.78-27-18.14-32.25-30Z" transform="translate(-631.5 -330.43)"/><path class="cls-4" d="M890.32,526.9c-1.51,4.53-1.6,8.59.12,11.51,4.45,7.56,20.63,6.74,30.75,3.54,15.11-4.78,27-18.14,32.25-30Z" transform="translate(-631.5 -330.43)"/><path d="M915.93,712.15c6.89-10.81,14.21-21.27,21.58-31.7s15-20.67,22.62-30.85,15.48-20.26,23.34-30.29,15.86-19.95,24-29.78l-.32,6c-2.29-3.67-4.54-7.36-6.78-11.06s-4.49-7.4-6.71-11.11Q987,562.2,980.5,550.93c-4.29-7.52-8.58-15-12.68-22.69-2.08-3.8-4.15-7.61-6.15-11.47s-4-7.69-5.94-11.59q4.08,5.08,8,10.29c2.64,3.44,5.21,6.93,7.78,10.42,5.18,7,10.18,14,15.18,21.1s9.89,14.21,14.73,21.38c2.43,3.59,4.85,7.17,7.23,10.78s4.79,7.2,7.14,10.83a5.06,5.06,0,0,1-.24,5.87l-.08.1c-7.81,10.07-15.79,20-23.79,29.93s-16.15,19.71-24.42,29.42-16.62,19.34-25.14,28.84S925,703.06,915.93,712.15Z" transform="translate(-631.5 -330.43)"/><line x1="345.38" y1="256.08" x2="273.44" y2="346.3"/><path d="M976.89,586.51a205.35,205.35,0,0,1-14.74,25.14c-5.38,8-11.1,15.75-17.09,23.27s-12.27,14.82-18.87,21.85a203.42,203.42,0,0,1-21.25,20,204.73,204.73,0,0,1,14.72-25.16q8.08-12,17.11-23.26t18.88-21.84A206.41,206.41,0,0,1,976.89,586.51Z" transform="translate(-631.5 -330.43)"/><path d="M849.65,529a37.63,37.63,0,0,1,7.47-22,36.35,36.35,0,0,1,4.15-4.55,35.46,35.46,0,0,1,5-3.78,43.06,43.06,0,0,1,11.37-4.83c3.91-1.11,7.67-1.68,11.47-2.42l5.74-.83c1.92-.26,3.85-.41,5.78-.61a141,141,0,0,1,23.25-.12c3.86.25,7.67.74,11.42,1.18s7.43,1,11,1.33l2.6.18,2.53.05a38.78,38.78,0,0,0,5-.41,30.62,30.62,0,0,0,9.49-2.89,16.2,16.2,0,0,0,6.9-6.32,13.91,13.91,0,0,0,1.61-4.56,17.49,17.49,0,0,0,.24-2.53l0-.65a4.27,4.27,0,0,0,0-.56c-.06-.41-.14-.84-.23-1.26a19.48,19.48,0,0,0-4.95-9.27,21.49,21.49,0,0,0-9.42-5.59,21.28,21.28,0,0,1,10.59,4.3,21.88,21.88,0,0,1,6.85,9.65c.17.48.33,1,.47,1.48.06.26.13.51.18.83l.15.76a21.15,21.15,0,0,1,.33,3.1,18.32,18.32,0,0,1-1,6.38,19.33,19.33,0,0,1-3.24,5.75,25,25,0,0,1-4.78,4.42,35.08,35.08,0,0,1-11.5,5.13,45.25,45.25,0,0,1-6.13,1.11c-1,.1-2.07.17-3.11.23l-3,.06c-8-.12-15.29-1.06-22.63-1.4-3.66-.24-7.3-.28-10.95-.36s-7.28.09-10.93.25l-5.48.32-5.48.45c-3.64.41-7.37.72-10.79,1.3a40.86,40.86,0,0,0-9.82,2.81,31.66,31.66,0,0,0-8.53,5.57,38.82,38.82,0,0,0-6.76,8.22,43.67,43.67,0,0,0-2.62,4.87C851,525.43,850.32,527.19,849.65,529Z" transform="translate(-631.5 -330.43)"/><path d="M813.19,361.23c-4.68,10.51-9.07,20.79-12.81,31.24A177.56,177.56,0,0,0,791.85,424c-1.63,10.53-1.82,21.19,1.49,30.92a42.67,42.67,0,0,0,7.58,13.58,67.79,67.79,0,0,0,12.27,11.26,43.13,43.13,0,0,1-15.87-7.48,40.6,40.6,0,0,1-11.66-14.08,50.11,50.11,0,0,1-5-17.77c-.07-.76-.18-1.52-.21-2.28l-.06-2.29c0-.76,0-1.52,0-2.28l.07-2.26c0-.76.06-1.52.12-2.27l.22-2.24.23-2.24.34-2.22a109.69,109.69,0,0,1,11.41-33.23,125.51,125.51,0,0,1,9.12-14.77A92.84,92.84,0,0,1,813.19,361.23Z" transform="translate(-631.5 -330.43)"/><path d="M886.79,361.42a92.12,92.12,0,0,1,11.28,13.11,126.93,126.93,0,0,1,9.13,14.77,109.4,109.4,0,0,1,11.4,33.23l.34,2.22.23,2.24.23,2.24c.05.75.08,1.51.11,2.27l.08,2.26c0,.76,0,1.52-.05,2.28l-.06,2.29c0,.76-.13,1.52-.2,2.28a49.92,49.92,0,0,1-5,17.77,40.39,40.39,0,0,1-11.66,14.08,43.08,43.08,0,0,1-15.86,7.48,67.73,67.73,0,0,0,12.26-11.26,42.7,42.7,0,0,0,7.59-13.58c3.3-9.73,3.12-20.39,1.48-30.92a176.72,176.72,0,0,0-8.53-31.52C895.85,382.21,891.47,371.93,886.79,361.42Z" transform="translate(-631.5 -330.43)"/><path d="M743.12,505.3q-2.89,5.85-6,11.6c-2,3.85-4.07,7.66-6.15,11.46-4.11,7.64-8.39,15.16-12.68,22.69s-8.69,15-13.13,22.4-8.93,14.82-13.49,22.17l-.32-6c8.11,9.83,16.07,19.79,24,29.78s15.7,20.08,23.35,30.27,15.23,20.46,22.63,30.86,14.67,20.9,21.56,31.71c-9-9.09-17.64-18.53-26.2-28s-16.88-19.13-25.14-28.85S715.22,635.88,707.17,626s-16-19.85-23.78-29.93l-2.3-3,2-3q7.11-10.86,14.38-21.6t14.73-21.39c5-7.07,10-14.14,15.18-21.09,2.56-3.5,5.14-7,7.78-10.43S740.4,508.7,743.12,505.3Z" transform="translate(-631.5 -330.43)"/><line x1="86.97" y1="260.33" x2="158.95" y2="350.59"/><path d="M718.47,590.76a207.71,207.71,0,0,1,21.25,20q9.9,10.56,18.89,21.85t17.11,23.27A204.91,204.91,0,0,1,790.45,681a205.7,205.7,0,0,1-21.26-20q-9.9-10.54-18.88-21.86t-17.1-23.28A208.84,208.84,0,0,1,718.47,590.76Z" transform="translate(-631.5 -330.43)"/><path d="M849.51,527.9c-.67-1.78-1.35-3.54-2.17-5.22a43.67,43.67,0,0,0-2.62-4.87,39.13,39.13,0,0,0-6.76-8.23,31.9,31.9,0,0,0-8.53-5.57,40.76,40.76,0,0,0-9.81-2.8c-3.43-.59-7.16-.89-10.8-1.3l-5.48-.45-5.48-.33q-5.48-.22-10.93-.24c-3.65.08-7.29.12-10.95.36-7.34.34-14.64,1.28-22.63,1.39l-3-.05c-1-.07-2.08-.14-3.11-.23a45.28,45.28,0,0,1-6.13-1.12,34.88,34.88,0,0,1-11.5-5.13,24.63,24.63,0,0,1-4.78-4.41,19.68,19.68,0,0,1-3.24-5.75,18.32,18.32,0,0,1-1-6.38,21.28,21.28,0,0,1,.33-3.11l.15-.76c.05-.31.12-.57.18-.82.14-.51.3-1,.47-1.48a22,22,0,0,1,6.85-9.66,21.21,21.21,0,0,1,10.59-4.29,21.39,21.39,0,0,0-9.42,5.59,19.43,19.43,0,0,0-5,9.27c-.09.42-.17.85-.23,1.26a4.13,4.13,0,0,0,0,.56l0,.65a17.49,17.49,0,0,0,.24,2.53,13.85,13.85,0,0,0,1.61,4.55,16.13,16.13,0,0,0,6.9,6.32,30.37,30.37,0,0,0,9.49,2.9,37.1,37.1,0,0,0,5,.4l2.53,0,2.6-.18c3.52-.34,7.21-.83,11-1.34s7.56-.92,11.42-1.17a139.93,139.93,0,0,1,23.25.11c1.93.2,3.86.36,5.78.62l5.74.83c3.8.73,7.56,1.3,11.47,2.42a43.06,43.06,0,0,1,11.37,4.83,34.83,34.83,0,0,1,5,3.77,37.06,37.06,0,0,1,4.15,4.55A37.63,37.63,0,0,1,849.51,527.9Z" transform="translate(-631.5 -330.43)"/></svg>